<?xml version="1.0" encoding="UTF-8" standalone="no"?>
<!-- Generator: Adobe Illustrator 16.0.0, SVG Export Plug-In . SVG Version: 6.00 Build 0)  -->

<svg
   xmlns:dc="http://purl.org/dc/elements/1.1/"
   xmlns:cc="http://creativecommons.org/ns#"
   xmlns:rdf="http://www.w3.org/1999/02/22-rdf-syntax-ns#"
   xmlns:svg="http://www.w3.org/2000/svg"
   xmlns="http://www.w3.org/2000/svg"
   xmlns:sodipodi="http://sodipodi.sourceforge.net/DTD/sodipodi-0.dtd"
   xmlns:inkscape="http://www.inkscape.org/namespaces/inkscape"
   version="1.1"
   id="Layer_1"
   x="0px"
   y="0px"
   width="64px"
   height="64px"
   viewBox="0 0 64 64"
   enable-background="new 0 0 64 64"
   xml:space="preserve"
   inkscape:version="0.91 r13725"
   sodipodi:docname="fitness.svg"><metadata
     id="metadata4205"><rdf:RDF><cc:Work
         rdf:about=""><dc:format>image/svg+xml</dc:format><dc:type
           rdf:resource="http://purl.org/dc/dcmitype/StillImage" /><dc:title></dc:title></cc:Work></rdf:RDF></metadata><defs
     id="defs4203" /><sodipodi:namedview
     pagecolor="#ffffff"
     bordercolor="#666666"
     borderopacity="1"
     objecttolerance="10"
     gridtolerance="10"
     guidetolerance="10"
     inkscape:pageopacity="0"
     inkscape:pageshadow="2"
     inkscape:window-width="1863"
     inkscape:window-height="1059"
     id="namedview4201"
     showgrid="false"
     inkscape:zoom="5.6568543"
     inkscape:cx="40.892007"
     inkscape:cy="77.208106"
     inkscape:window-x="57"
     inkscape:window-y="21"
     inkscape:window-maximized="1"
     inkscape:current-layer="Layer_1" /><path
     style="fill:#000000;fill-opacity:1;fill-rule:evenodd;stroke:#000000;stroke-width:0.30000001;stroke-linecap:butt;stroke-linejoin:miter;stroke-miterlimit:4;stroke-dasharray:none;stroke-opacity:1"
     d="M 7.7576351,55.790147 C 6.4527392,53.893185 6.2737404,44.232866 7.0689655,40.896552 c 2.0402517,-8.559741 7.7339225,-21.58577 10.0689655,-25 1.116117,-1.631952 0.339712,-2.108625 0.758621,-2.862069 1.931455,-3.4738879 7.034482,-8.1034485 8.586207,-8.1724141 1.551724,-0.068966 7.586207,4.724138 7.689655,6.3448281 0.103448,1.620689 -1.424734,1.995947 -1.275862,2.931034 0.260802,1.638141 1.153976,0.53033 1.217593,1.758621 0.09103,1.757616 -2.541303,1.250026 -3.493455,1.413793 -1.223348,0.210412 -1.803598,0.654372 -2.393319,0.845366 -0.757366,0.24529 -3.675647,-0.01778 -4.296337,0.706355 -0.620689,0.724138 -4.068965,8.482759 -4,16.551724 0.06897,8.068966 0.896552,11.448276 1.862069,11.448276 0.965518,0 4.206897,-4.965517 10,-4.965517 5.793104,0 6.344828,2.241379 7.517242,2.241379 1.172414,0 3.37931,-4.37931 8.586207,-4.413793 5.206896,-0.03448 9.275862,4.517241 9.172414,10.344828 C 56.965517,55.896552 52.827586,60.689655 49,60.793103 45.172414,60.896552 29.349322,61.027163 19.793103,59.896552 18.07339,59.69309 10.160017,59.282553 7.7576351,55.790147 Z"
     id="path4291"
     inkscape:connector-curvature="0"
     sodipodi:nodetypes="ssssssssssssssssssss" /></svg>