<?xml version="1.0" encoding="UTF-8" standalone="no"?>
<svg
   xmlns:dc="http://purl.org/dc/elements/1.1/"
   xmlns:cc="http://creativecommons.org/ns#"
   xmlns:rdf="http://www.w3.org/1999/02/22-rdf-syntax-ns#"
   xmlns:svg="http://www.w3.org/2000/svg"
   xmlns="http://www.w3.org/2000/svg"
   xmlns:sodipodi="http://sodipodi.sourceforge.net/DTD/sodipodi-0.dtd"
   xmlns:inkscape="http://www.inkscape.org/namespaces/inkscape"
   style="enable-background:new"
   height="512"
   viewBox="0 0 512.40002 512"
   width="512.4"
   version="1.1"
   id="svg35"
   sodipodi:docname="logo.svg"
   inkscape:version="0.92.3 (2405546, 2018-03-11)">
  <metadata
     id="metadata39">
    <rdf:RDF>
      <cc:Work
         rdf:about="">
        <dc:format>image/svg+xml</dc:format>
        <dc:type
           rdf:resource="http://purl.org/dc/dcmitype/StillImage" />
        <dc:title />
      </cc:Work>
    </rdf:RDF>
  </metadata>
  <sodipodi:namedview
     pagecolor="#ffffff"
     bordercolor="#666666"
     borderopacity="1"
     objecttolerance="10"
     gridtolerance="10"
     guidetolerance="10"
     inkscape:pageopacity="0"
     inkscape:pageshadow="2"
     inkscape:window-width="1853"
     inkscape:window-height="1016"
     id="namedview37"
     showgrid="false"
     showguides="true"
     inkscape:guide-bbox="true"
     inkscape:zoom="0.921875"
     inkscape:cx="360.79214"
     inkscape:cy="209.2943"
     inkscape:window-x="67"
     inkscape:window-y="27"
     inkscape:window-maximized="1"
     inkscape:current-layer="svg35">
    <sodipodi:guide
       position="-123.66102,190.91525"
       orientation="0,1"
       id="guide3754"
       inkscape:locked="false" />
    <sodipodi:guide
       position="256,147.52542"
       orientation="1,0"
       id="guide3756"
       inkscape:locked="false" />
    <sodipodi:guide
       position="205.56433,255.42135"
       orientation="0,1"
       id="guide4685"
       inkscape:locked="false" />
  </sodipodi:namedview>
  <defs
     id="defs7">
    <linearGradient
       id="a"
       y2="494"
       gradientUnits="userSpaceOnUse"
       x2="256"
       gradientTransform="matrix(1 0 0 1.076 0 -19.36)"
       y1="18"
       x1="256">
      <stop
         style="stop-color:#eaeaea"
         offset="0"
         id="stop2" />
      <stop
         style="stop-color:#f4f4f4"
         offset="1"
         id="stop4" />
    </linearGradient>
  </defs>
  <rect
     style="color:#000000;enable-background:accumulate;fill:#005ac8;fill-opacity:1"
     height="512"
     width="512"
     y="0"
     x="0"
     id="rect9" />
  <path
     d="m-208.3 605.6c-7.842 0-14.55 5.029-17.32 12.19-0.0612-0.00067-0.1208 0-0.1823 0-7.088 0-12.83 6.002-12.83 13.41 0 7.404 5.746 13.41 12.83 13.41h17.5 16.33c5.155 0 9.333-4.365 9.333-9.75 0-4.543-2.974-8.363-7-9.445 0.001-0.1029 0-0.2015 0-0.3047 0-10.77-8.357-19.5-18.67-19.5z"
     style="stroke-width:4;color:#000000;stroke:#ccc;enable-background:accumulate;display:none;fill:#fff"
     id="path19" />
  <path
     style="stroke-width:4;color:#000000;stroke:#ccc;enable-background:accumulate;display:none;fill:none"
     d="m288.9 828.1c-6.349 0-11.78 4.072-14.02 9.867-0.0496-0.00055-0.0978 0-0.1476 0-5.738 0-10.39 4.86-10.39 10.85 0 5.995 4.652 10.85 10.39 10.85h14.17 13.22c4.173 0 7.557-3.534 7.557-7.894 0-3.678-2.408-6.771-5.667-7.647 0.001-0.0833 0-0.1632 0-0.2467 0-8.719-6.766-15.79-15.11-15.79z"
     id="path21" />
  <g
     style="display:none"
     transform="translate(0 -558.4)"
     id="g33">
    <path
       d="m166.1 576.4h179.9c145.3 0 166.1 20.74 166.1 165.9v144.2c0 145.2-20.76 165.9-166.1 165.9h-179.9c-145.3 0-166.1-20-166.1-165.5v-144.2c0-145.2 20.76-165.9 166.1-165.9z"
       style="stroke:#00f;fill:#00f;display:inline;fill-opacity:.08118"
       id="path23" />
    <circle
       style="stroke-width:.8333;fill-opacity:.08118;color:#000000;stroke:#00f;enable-background:accumulate;display:inline;fill:#00f"
       cx="256"
       transform="matrix(1.2 0 0 1.2 -51.2 528.8)"
       cy="238"
       r="120"
       id="circle25" />
    <rect
       style="stroke-linejoin:round;fill-opacity:.08118;color:#000000;stroke:#00f;stroke-linecap:round;enable-background:accumulate;display:inline;fill:#00f"
       height="272"
       width="272"
       y="678.4"
       x="120"
       id="rect27" />
    <rect
       style="stroke-linejoin:round;fill-opacity:.08118;color:#000000;stroke:#00f;stroke-linecap:round;enable-background:accumulate;display:inline;fill:#00f"
       height="240"
       width="304"
       y="694.4"
       x="104"
       id="rect29" />
    <rect
       style="stroke-linejoin:round;fill-opacity:.08118;color:#000000;stroke:#00f;stroke-linecap:round;enable-background:accumulate;display:inline;fill:#00f"
       height="304"
       width="240"
       y="662.4"
       x="136"
       id="rect31" />
  </g>
  <rect
     style="color:#000000;fill:#a3ccff;fill-opacity:0.19215686;stroke:none;stroke-width:1.31681705;enable-background:accumulate"
     height="653.58154"
     width="695.49036"
     y="261.37247"
     x="-90.070946"
     id="rect9-3"
     transform="matrix(0.99999633,-0.00271094,0.15484705,0.98793845,0,0)" />
  <g
     aria-label="O"
     transform="matrix(1.7832849,0,0,1.9831533,-110.37205,-254.81762)"
     style="font-style:normal;font-variant:normal;font-weight:normal;font-stretch:normal;font-size:40px;line-height:1.25;font-family:Ubuntu;-inkscape-font-specification:Ubuntu;letter-spacing:0px;word-spacing:0px;fill:#000000;fill-opacity:1;stroke:none;stroke-width:1px;stroke-linecap:butt;stroke-linejoin:miter;stroke-opacity:1"
     id="flowRoot3746">
    <path
       d="m 117.43346,258.09804 q 0,-23.73333 6.93334,-41.86666 7.2,-18.13333 19.2,-30.13333 12.26666,-12.26667 28.26666,-18.4 16.26667,-6.13334 34.4,-6.13334 17.86667,0 33.6,6.13334 16,6.13333 28,18.4 12,12 18.93333,30.13333 7.2,18.13333 7.2,41.86666 0,23.73334 -7.2,41.86667 -6.93333,18.13333 -18.93333,30.4 -12,12 -28,18.13333 -15.73333,6.13333 -33.6,6.13333 -18.13333,0 -34.4,-6.13333 -16,-6.13333 -28.26666,-18.13333 -12,-12.26667 -19.2,-30.4 -6.93334,-18.13333 -6.93334,-41.86667 z m 27.2,0 q 0,16.8 4.26667,30.66667 4.26666,13.6 12,23.2 8,9.6 19.2,14.93333 11.46666,5.06667 25.6,5.06667 14.13333,0 25.33333,-5.06667 11.2,-5.33333 18.93333,-14.93333 8,-9.6 12.26667,-23.2 4.26666,-13.86667 4.26666,-30.66667 0,-16.8 -4.26666,-30.4 -4.26667,-13.86666 -12.26667,-23.46666 -7.73333,-9.6 -18.93333,-14.66667 -11.2,-5.33333 -25.33333,-5.33333 -14.13334,0 -25.6,5.33333 -11.2,5.06667 -19.2,14.66667 -7.73334,9.6 -12,23.46666 -4.26667,13.6 -4.26667,30.4 z"
       style="font-size:266.66665649px;fill:#ffffff"
       id="path4700"
       inkscape:connector-curvature="0" />
  </g>
  <g
     id="g4668"
     style="fill:#005ac8;fill-opacity:0.53333315;stroke:none">
    <path
       inkscape:connector-curvature="0"
       id="path4663"
       d="M 0,512 512,0"
       style="fill:#005ac8;fill-opacity:0.53333315;stroke:none;stroke-width:1px;stroke-linecap:butt;stroke-linejoin:miter;stroke-opacity:1" />
  </g>
  <path
     style="fill:none;stroke:#000000;stroke-width:1px;stroke-linecap:butt;stroke-linejoin:miter;stroke-opacity:1"
     d="M 512,0 V 512 H 0"
     id="path4665"
     inkscape:connector-curvature="0" />
</svg>
