<?xml version="1.0" encoding="UTF-8" standalone="no"?>
<!-- Created with Inkscape (http://www.inkscape.org/) -->

<svg
   xmlns:dc="http://purl.org/dc/elements/1.1/"
   xmlns:cc="http://creativecommons.org/ns#"
   xmlns:rdf="http://www.w3.org/1999/02/22-rdf-syntax-ns#"
   xmlns:svg="http://www.w3.org/2000/svg"
   xmlns="http://www.w3.org/2000/svg"
   xmlns:sodipodi="http://sodipodi.sourceforge.net/DTD/sodipodi-0.dtd"
   xmlns:inkscape="http://www.inkscape.org/namespaces/inkscape"
   width="1080px"
   height="1920px"
   viewBox="0 0 1080 1920"
   version="1.1"
   id="SVGRoot"
   inkscape:version="0.92.3 (2405546, 2018-03-11)"
   sodipodi:docname="splash.svg">
  <sodipodi:namedview
     id="base"
     pagecolor="#ffffff"
     bordercolor="#666666"
     borderopacity="1.0"
     inkscape:pageopacity="0.0"
     inkscape:pageshadow="2"
     inkscape:zoom="0.35"
     inkscape:cx="788.55775"
     inkscape:cy="547.33225"
     inkscape:document-units="px"
     inkscape:current-layer="layer1"
     showgrid="false"
     inkscape:window-width="1652"
     inkscape:window-height="1016"
     inkscape:window-x="268"
     inkscape:window-y="27"
     inkscape:window-maximized="0" />
  <defs
     id="defs5254" />
  <metadata
     id="metadata5257">
    <rdf:RDF>
      <cc:Work
         rdf:about="">
        <dc:format>image/svg+xml</dc:format>
        <dc:type
           rdf:resource="http://purl.org/dc/dcmitype/StillImage" />
        <dc:title></dc:title>
      </cc:Work>
    </rdf:RDF>
  </metadata>
  <g
     id="layer1"
     inkscape:groupmode="layer"
     inkscape:label="Ebene 1">
    <rect
       style="color:#000000;fill:#005ac8;fill-opacity:1;stroke-width:2.91023326;enable-background:accumulate"
       height="1966.2858"
       width="1129.1428"
       y="-27.428572"
       x="-30.285721"
       id="rect9" />
    <rect
       style="color:#000000;fill:#005ac8;fill-opacity:1;enable-background:accumulate"
       height="512"
       width="512"
       y="567.29962"
       x="212.96564"
       id="rect9-6" />
    <rect
       style="color:#000000;fill:#a3ccff;fill-opacity:0.19215686;stroke:none;stroke-width:3.70382524;enable-background:accumulate"
       height="1816.0536"
       width="1980.2155"
       y="843.40521"
       x="-486.80472"
       id="rect9-3"
       transform="matrix(0.9999562,0.00935955,0.20285719,0.97920833,0,0)" />
    <g
       aria-label="O"
       transform="matrix(1.7832849,0,0,1.9831533,102.5936,312.48198)"
       style="font-style:normal;font-variant:normal;font-weight:normal;font-stretch:normal;font-size:40px;line-height:1.25;font-family:Ubuntu;-inkscape-font-specification:Ubuntu;letter-spacing:0px;word-spacing:0px;fill:#000000;fill-opacity:1;stroke:none;stroke-width:1px;stroke-linecap:butt;stroke-linejoin:miter;stroke-opacity:1;enable-background:new"
       id="flowRoot3746">
      <path
         d="m 117.43346,258.09804 q 0,-23.73333 6.93334,-41.86666 7.2,-18.13333 19.2,-30.13333 12.26666,-12.26667 28.26666,-18.4 16.26667,-6.13334 34.4,-6.13334 17.86667,0 33.6,6.13334 16,6.13333 28,18.4 12,12 18.93333,30.13333 7.2,18.13333 7.2,41.86666 0,23.73334 -7.2,41.86667 -6.93333,18.13333 -18.93333,30.4 -12,12 -28,18.13333 -15.73333,6.13333 -33.6,6.13333 -18.13333,0 -34.4,-6.13333 -16,-6.13333 -28.26666,-18.13333 -12,-12.26667 -19.2,-30.4 -6.93334,-18.13333 -6.93334,-41.86667 z m 27.2,0 q 0,16.8 4.26667,30.66667 4.26666,13.6 12,23.2 8,9.6 19.2,14.93333 11.46666,5.06667 25.6,5.06667 14.13333,0 25.33333,-5.06667 11.2,-5.33333 18.93333,-14.93333 8,-9.6 12.26667,-23.2 4.26666,-13.86667 4.26666,-30.66667 0,-16.8 -4.26666,-30.4 -4.26667,-13.86666 -12.26667,-23.46666 -7.73333,-9.6 -18.93333,-14.66667 -11.2,-5.33333 -25.33333,-5.33333 -14.13334,0 -25.6,5.33333 -11.2,5.06667 -19.2,14.66667 -7.73334,9.6 -12,23.46666 -4.26667,13.6 -4.26667,30.4 z"
         style="font-size:266.66665649px;fill:#ffffff"
         id="path4700"
         inkscape:connector-curvature="0" />
    </g>
    <g
       transform="translate(212.96564,567.2996)"
       id="g4668"
       style="fill:#005ac8;fill-opacity:0.53333285;stroke:none;enable-background:new">
      <path
         inkscape:connector-curvature="0"
         id="path4663"
         d="M 0,512 512,0"
         style="fill:#005ac8;fill-opacity:0.53333285;stroke:none;stroke-width:1px;stroke-linecap:butt;stroke-linejoin:miter;stroke-opacity:1" />
    </g>
    <path
       style="fill:none;stroke:none;stroke-width:1px;stroke-linecap:butt;stroke-linejoin:miter;stroke-opacity:1;enable-background:new"
       d="m 724.96568,567.2996 v 512 H 212.96564"
       id="path4665"
       inkscape:connector-curvature="0" />
  </g>
</svg>
